<?xml version="1.0" encoding="UTF-8" standalone="no"?>
<svg
        viewBox="0 0 32 32"
        version="1.1"
        xmlns="http://www.w3.org/2000/svg">
    <path
            d="M 16 0 L 0 32 L 32 32 L 16 0 z M 6.9296875 22.119141 L 8.7558594 22.119141 L 10.869141 28.294922 L 12.912109 22.119141 L 14.699219 22.119141 L 11.710938 30.464844 L 9.9121094 30.464844 L 6.9296875 22.119141 z M 17.210938 24.28125 C 18.110403 24.28125 18.819899 24.579933 19.339844 25.175781 C 19.859788 25.767835 20.108709 26.676489 20.085938 27.902344 L 16.078125 27.902344 C 16.089511 28.376746 16.218155 28.746054 16.464844 29.011719 C 16.711533 29.273589 17.018583 29.40625 17.386719 29.40625 C 17.637203 29.40625 17.848747 29.3378 18.019531 29.201172 C 18.190316 29.064544 18.31896 28.844633 18.40625 28.541016 L 20 28.808594 C 19.795058 29.393057 19.469431 29.839072 19.025391 30.146484 C 18.585146 30.450102 18.033303 30.601562 17.369141 30.601562 C 16.317866 30.601562 15.53992 30.257246 15.035156 29.570312 C 14.636659 29.020006 14.4375 28.325071 14.4375 27.486328 C 14.4375 26.484391 14.698917 25.702206 15.222656 25.136719 C 15.746396 24.567437 16.410147 24.28125 17.210938 24.28125 z M 24.183594 24.28125 C 24.547934 24.28125 24.898554 24.382838 25.236328 24.583984 L 24.742188 25.978516 C 24.472727 25.803936 24.221742 25.716797 23.990234 25.716797 C 23.766317 25.716797 23.577479 25.779055 23.421875 25.904297 C 23.266271 26.025744 23.141866 26.247719 23.050781 26.570312 C 22.963491 26.892906 22.919922 27.569153 22.919922 28.597656 L 22.919922 30.464844 L 21.320312 30.464844 L 21.320312 24.417969 L 22.806641 24.417969 L 22.806641 25.277344 C 23.06092 24.871256 23.289088 24.603647 23.490234 24.474609 C 23.695176 24.345572 23.925519 24.28125 24.183594 24.28125 z M 17.306641 25.505859 C 16.957481 25.505859 16.669119 25.632439 16.441406 25.886719 C 16.213693 26.140998 16.101674 26.487378 16.105469 26.923828 L 18.496094 26.923828 C 18.484708 26.460812 18.366385 26.110192 18.138672 25.871094 C 17.910959 25.6282 17.633029 25.505859 17.306641 25.505859 z"
            fill="#788289"/>
</svg>
